# xmcd
#
# Track frame offsets: 
#        150
#        14804
#        30129
#        43803
#        59930
#        77685
#        94016
#        108321
#        123656
#        148035
#        168751
#        181593
#        190504
#        206861
#
# Disc length: 2961 seconds
#
# Revision: 3
# Processed by: cddbd v1.5.2PL0 Copyright (c) Steve Scherf et al.
# Submitted via: ExactAudioCopy v0.90b4
#
DISCID=bd0b8f0e
DTITLE=Norman and Nancy Blake - Back Home In Sulphur Springs
DYEAR=2005
DGENRE=Country
TTITLE0=More Good Women Gone Wrong
TTITLE1=Columbus Stockade Blues
TTITLE2=He's Coming To Us Dead
TTITLE3=The Girl I Left In Sunny Tennessee 
TTITLE4=We Parted By The Riverside
TTITLE5=Ella Ree
TTITLE6=Happy Little Home In Arkansas
TTITLE7=Back Home In Sulphur Springs
TTITLE8=The Mermaid
TTITLE9=Take Me Home Poor Julia
TTITLE10=Seaboard Airline Rag
TTITLE11=Star Spangled Banner
TTITLE12=The Empress Of Ireland
TTITLE13=Katy Cline
EXTD=
EXTT0=
EXTT1=
EXTT2=
EXTT3=
EXTT4=
EXTT5=
EXTT6=
EXTT7=
EXTT8=
EXTT9=
EXTT10=
EXTT11=
EXTT12=
EXTT13=
PLAYORDER=
